<svg xmlns="http://www.w3.org/2000/svg" width="490" height="12" fill="none"><path fill="#2E68FD" d="M330.072 2.853c.184.292.033.538-.487.59-1.302.131-2.618.251-3.94.277-2.874.053-5.755.041-8.399.056-.704.296-.625.486.026.557.651.071 1.322.086 1.987.086 24.685.049 49.378.079 74.063.15 2.658.007 5.315.198 7.959.381 3.105.213 6.19.329 9.301.004 1.303-.135 2.664-.28 3.966-.21 11.755.643 23.535.509 35.309.527 1.309.004 2.618.154 3.92.262.099.008.224.206.217.31-.006.109-.111.277-.256.307-.809.176-1.651.475-2.46.448-2.44-.078-4.848-.213-7.249.243-.802.154-1.763.042-2.651.038-6.669-.008-13.339-.026-20.009-.023-9.787.004-19.568.023-29.355.03-3.335.004-6.657.056-9.979.318-2.414.19-4.874.21-7.314.22-17.345.08-34.697.12-52.042.202-5.328.027-10.649.056-15.984.356-5.288.299-10.649.224-15.977.239-25.357.056-50.713.067-76.063.13-10.676.027-21.351.176-32.027.195-11.122.015-22.239-.082-33.361-.093-15.569-.015-31.139-.012-46.708.022-2.88.007-5.762.183-8.65.288-2.216.078-4.433.213-6.65.243-5.11.07-10.228.082-15.345.142-2.447.03-4.92-.011-7.327.19-5.743.486-11.524.509-17.3.613-2.663.05-5.314.221-7.978.34-6.867.315-13.662 1.002-20.555 1.19-1.77.048-3.526.29-5.295.343-3.322.101-6.657.18-9.985.176-1.914 0-3.197-.856-3.282-1.996C.106 8.874.053 7.742 0 6.614c-.026-.569.546-.995 1.355-1.208 1.197-.31 2.46-.602 3.75-.718 1.749-.157 3.544-.123 5.32-.209 3.098-.146 6.196-.31 9.295-.482 1.105-.06 2.203-.187 3.308-.232 8.426-.34 16.826-.837 25.212-1.38 3.085-.197 6.216-.16 9.327-.212 5.775-.094 11.564-.038 17.3-.583 1.742-.165 3.545-.12 5.327-.154 7.328-.127 14.655-.142 21.983-.545 6.183-.34 12.444-.296 18.667-.296 23.133-.003 46.26.056 69.394.068 28.02.014 56.047.018 84.068.01 9.117-.003 18.24-.04 27.356-.1 2.664-.019 5.322-.168 7.986-.25 1.105-.034 2.216-.098 3.321-.064 2.881.082 5.762.291 8.637.295 2.644.004 5.288-.202 7.932-.299.158-.007.494.16.467.213-.085.206-.197.523-.44.572-.823.165-1.704.303-2.572.322-2.664.063-5.335.052-8.005.108-.868.019-1.756.112-2.585.258-.244.041-.369.377-.441.594-.026.075.243.25.414.273.856.105 1.79.325 2.586.228 3.742-.448 7.432-.232 11.109.03Zm-23.173-.333c-.164-.067-.329-.19-.493-.194-3.756-.041-7.512-.075-11.274-.086-.842-.004-1.691.086-2.612.138.553.733 1.566.561 2.355.583 1.809.045 3.5.101 4.664 1.096.25.213 1.309.306 1.815.194 1.849-.404 3.625-.912 5.407-1.398.112-.034.092-.22.138-.333Zm-36.466-.108c-.526 0-.96-.015-1.395.007-.197.012-.499.06-.559.139-.177.235.099.37.678.426.645.06 1.276.168 1.914.232.552.056.888-.079.875-.36-.007-.096-.191-.235-.349-.272-.408-.086-.835-.127-1.164-.172Z"/><path fill="#2E68FD" d="M363.078 0c5.552 0 11.103-.003 16.655.005 2.223.003 4.46-.015 6.531.538.323.086.487.37.724.56-.184.068-.368.195-.559.199-3.769.06-7.538.142-11.314.15-9.774.018-19.542.01-29.316-.008-1.309-.004-2.624-.127-3.933-.22-.178-.012-.494-.176-.467-.232.085-.221.217-.58.46-.617 1.046-.168 2.138-.33 3.217-.333 5.998-.03 11.99-.015 17.989-.015.013-.011.013-.019.013-.026Zm112.221 5.701c.342.135.822.228.98.412a.488.488 0 0 1-.079.676c-.69.535-1.697.684-2.841.419-.276-.064-.586-.423-.507-.587.323-.643 1.243-.953 2.447-.92Zm13.149.991c-.494-.056-1.125-.101-1.717-.21-.48-.09-.612-.32-.362-.541.092-.083.356-.154.527-.146a25.57 25.57 0 0 1 1.867.142c.994.116 1.579.478 1.02.583-.388.075-.802.105-1.335.172ZM396.815.371c.625-.034 1.184-.123 1.697-.067.217.022.566.407.467.515-.322.352-.98.39-1.533.202-.269-.093-.361-.358-.631-.65Zm69.058 6.411c-.23-.198-.559-.378-.657-.595a.512.512 0 0 1 .171-.609c.342-.24 1.374-.127 1.604.187.132.172.06.467-.138.617-.223.172-.684.25-1.039.366l.059.034ZM356.284 2.778a.982.982 0 0 1 1.052-.112c.119.056.191.243.112.314-.263.25-.664.295-1.033.12-.118-.056-.092-.213-.131-.322Zm119.048-1.48c-.197-.019-.513-.004-.579-.067-.256-.258-.033-.4.566-.34.171.014.309.13.46.198-.151.067-.296.138-.447.209Zm-31.382-.135-.414-.082.335-.127.079.21Zm38.552.071-.237-.213.48.004-.243.21ZM378.174 2.576l.428-.074-.06.201-.368-.127Z"/></svg>